<svg width="132" height="26" viewBox="0 0 132 26" fill="none" xmlns="http://www.w3.org/2000/svg">
<g clip-path="url(#clip0_125_6178)">
<path d="M35.7346 20.6766C35.5702 20.6766 35.2483 20.6766 34.9091 20.6413C34.5188 20.609 34.1333 20.535 33.7594 20.4204C32.1385 19.8512 28.3376 17.9658 28.1431 12.6409C27.937 6.98707 32.8008 5.1347 34.2966 4.70092C34.5775 4.62309 34.8644 4.56826 35.1545 4.53698C35.5331 4.49713 35.8642 4.49713 35.9001 4.49713H40.3309V6.76505H35.8978C35.8978 6.76505 35.6558 6.76506 35.4046 6.79124C35.2513 6.80795 35.0995 6.8365 34.9508 6.87663C30.8986 8.05044 30.3903 10.9411 30.4494 12.559C30.5883 16.3514 33.0659 17.7734 34.5305 18.2823C34.7243 18.3332 34.9222 18.3671 35.1221 18.3836C35.4694 18.4144 35.8006 18.4087 35.804 18.4087H40.3332V20.6755H35.7346V20.6766Z" fill="white"/>
<path d="M71.0118 20.6766H64.9741V18.4087H70.9458C70.9458 18.4087 71.2816 18.4144 71.6266 18.3836C71.8269 18.3671 72.0252 18.3332 72.2194 18.2823C73.6828 17.7734 76.1558 16.3468 76.2994 12.559C76.3584 10.9411 75.8525 8.05044 71.7991 6.87663C71.6503 6.83672 71.4986 6.80817 71.3453 6.79124C71.0929 6.76506 70.8555 6.76619 70.8544 6.76505H67.5733L67.601 13.7624L65.2948 13.7703L65.26 4.49713H70.8521C70.8845 4.49713 71.2156 4.49713 71.593 4.53698C71.8831 4.56815 72.1701 4.62298 72.4509 4.70092C73.9468 5.1347 78.8106 6.98707 78.6045 12.6409C78.41 17.9658 74.6125 19.8546 72.9881 20.4204C72.6142 20.535 72.2287 20.609 71.8385 20.6413C71.4981 20.672 71.1762 20.6766 71.0118 20.6766Z" fill="white"/>
<path d="M51.8519 20.8041C47.105 20.8041 43.2462 17.1176 43.2462 12.5874C43.2462 8.05728 47.1062 4.36963 51.8519 4.36963C56.5976 4.36963 60.4587 8.05615 60.4587 12.5874C60.4587 17.1187 56.5976 20.8041 51.8519 20.8041ZM51.8519 6.63755C48.3786 6.63755 45.5513 9.30624 45.5513 12.5874C45.5513 15.8686 48.3774 18.5373 51.8519 18.5373C55.3263 18.5373 58.1524 15.8675 58.1524 12.5874C58.1524 9.30738 55.3263 6.63755 51.8519 6.63755Z" fill="white"/>
<path d="M93.982 20.6766H82.9323V4.36963H93.982V6.63642H85.2385V18.4087H93.982V20.6766Z" fill="white"/>
<path d="M93.982 11.3886H88.5474V13.6554H93.982V11.3886Z" fill="white"/>
<path d="M11.1053 25.1726L22.1702 18.9187V6.36316L11.1053 12.6637V25.1726Z" fill="white"/>
<path d="M11.1053 0L16.6383 3.1776L5.61982 9.50206V22.0804L0 18.8607V6.36317L11.1053 0Z" fill="#007BFF"/>
<path d="M11.1053 25.1726L22.1702 18.9188V6.36319L11.1053 12.6637V25.1726Z" fill="white"/>
<path d="M11.1053 0L16.6383 3.1776L5.61982 9.50206V22.0804L0 18.8607V6.36317L11.1053 0Z" fill="#007BFF"/>
</g>
<path d="M104.202 11.0578C105.062 11.0578 105.702 11.2592 106.122 11.662C106.543 12.0648 106.753 12.66 106.753 13.4477C106.753 13.8683 106.65 14.2398 106.444 14.562C106.239 14.8753 105.934 15.1214 105.532 15.3005C105.129 15.4705 104.632 15.5555 104.041 15.5555L104.095 14.9514C104.372 14.9514 104.69 14.9917 105.048 15.0722C105.406 15.1438 105.751 15.2781 106.082 15.475C106.422 15.663 106.7 15.9315 106.914 16.2805C107.138 16.6207 107.25 17.0593 107.25 17.5963C107.25 18.187 107.152 18.6704 106.955 19.0463C106.767 19.4222 106.516 19.7131 106.203 19.919C105.89 20.1249 105.554 20.2681 105.196 20.3486C104.838 20.4202 104.493 20.456 104.162 20.456H100.819C100.586 20.456 100.389 20.38 100.228 20.2278C100.076 20.0667 100 19.8698 100 19.637V11.8768C100 11.6441 100.076 11.4517 100.228 11.2995C100.389 11.1384 100.586 11.0578 100.819 11.0578H104.202ZM103.961 12.6421H101.571L101.745 12.4273V14.8574L101.584 14.7366H104.001C104.261 14.7366 104.493 14.6515 104.699 14.4815C104.905 14.3114 105.008 14.0653 105.008 13.743C105.008 13.3582 104.909 13.0807 104.713 12.9106C104.525 12.7316 104.274 12.6421 103.961 12.6421ZM104.068 16.3208H101.625L101.745 16.2134V19.0463L101.611 18.912H104.162C104.574 18.912 104.9 18.8046 105.142 18.5898C105.384 18.3661 105.505 18.0349 105.505 17.5963C105.505 17.1935 105.424 16.9026 105.263 16.7236C105.102 16.5446 104.909 16.4327 104.686 16.388C104.462 16.3432 104.256 16.3208 104.068 16.3208Z" fill="#007BFF"/>
<path d="M109.617 11.0578H114.114C114.347 11.0578 114.54 11.1339 114.692 11.2861C114.853 11.4293 114.933 11.6173 114.933 11.85C114.933 12.0737 114.853 12.2572 114.692 12.4004C114.54 12.5347 114.347 12.6018 114.114 12.6018H110.355L110.476 12.3736V14.9917L110.369 14.8842H113.51C113.743 14.8842 113.935 14.9603 114.088 15.1125C114.249 15.2557 114.329 15.4437 114.329 15.6764C114.329 15.9001 114.249 16.0836 114.088 16.2268C113.935 16.3611 113.743 16.4282 113.51 16.4282H110.409L110.476 16.3208V19.0329L110.369 18.912H114.114C114.347 18.912 114.54 18.9926 114.692 19.1537C114.853 19.3059 114.933 19.4849 114.933 19.6908C114.933 19.9145 114.853 20.098 114.692 20.2412C114.54 20.3844 114.347 20.456 114.114 20.456H109.617C109.384 20.456 109.187 20.38 109.026 20.2278C108.874 20.0667 108.798 19.8698 108.798 19.637V11.8768C108.798 11.6441 108.874 11.4517 109.026 11.2995C109.187 11.1384 109.384 11.0578 109.617 11.0578Z" fill="#007BFF"/>
<path d="M119.663 20.456C119.412 20.456 119.206 20.38 119.045 20.2278C118.884 20.0667 118.804 19.8698 118.804 19.637V11.85H120.549V19.637C120.549 19.8698 120.464 20.0667 120.294 20.2278C120.133 20.38 119.922 20.456 119.663 20.456ZM116.696 12.6018C116.463 12.6018 116.266 12.5302 116.105 12.387C115.953 12.2438 115.877 12.0558 115.877 11.8231C115.877 11.5904 115.953 11.4069 116.105 11.2727C116.266 11.1294 116.463 11.0578 116.696 11.0578H122.657C122.89 11.0578 123.082 11.1294 123.234 11.2727C123.395 11.4159 123.476 11.6038 123.476 11.8365C123.476 12.0693 123.395 12.2572 123.234 12.4004C123.082 12.5347 122.89 12.6018 122.657 12.6018H116.696Z" fill="#007BFF"/>
<path d="M127.667 13.1657L124.767 19.9861C124.704 20.1562 124.606 20.2904 124.472 20.3889C124.346 20.4784 124.208 20.5232 124.056 20.5232C123.814 20.5232 123.635 20.456 123.518 20.3218C123.402 20.1875 123.344 20.0219 123.344 19.825C123.344 19.7445 123.357 19.6594 123.384 19.5699L126.727 11.5412C126.799 11.3622 126.906 11.2234 127.05 11.125C127.202 11.0265 127.363 10.9862 127.533 11.0041C127.694 11.0041 127.842 11.0534 127.976 11.1518C128.119 11.2413 128.222 11.3711 128.285 11.5412L131.587 19.4088C131.632 19.5252 131.655 19.6326 131.655 19.731C131.655 19.9727 131.574 20.1651 131.413 20.3083C131.261 20.4516 131.091 20.5232 130.903 20.5232C130.742 20.5232 130.594 20.4739 130.46 20.3755C130.334 20.277 130.236 20.1428 130.164 19.9727L127.278 13.2463L127.667 13.1657ZM125.183 18.3482L125.922 16.8042H129.547L129.802 18.3482H125.183Z" fill="#007BFF"/>
<defs>
<clipPath id="clip0_125_6178">
<rect width="93.982" height="25.1737" fill="white"/>
</clipPath>
</defs>
</svg>
