<svg id="visual" viewBox="0 0 960 500" width="960" height="500" xmlns="http://www.w3.org/2000/svg" xmlns:xlink="http://www.w3.org/1999/xlink" version="1.1"><rect x="0" y="0" width="960" height="500" fill="#0e1015"></rect><path d="M0 6L17.8 8.5C35.7 11 71.3 16 106.8 24.8C142.3 33.7 177.7 46.3 213.2 44.5C248.7 42.7 284.3 26.3 320 28C355.7 29.7 391.3 49.3 426.8 54.7C462.3 60 497.7 51 533.2 40.5C568.7 30 604.3 18 640 19C675.7 20 711.3 34 746.8 43.7C782.3 53.3 817.7 58.7 853.2 55.7C888.7 52.7 924.3 41.3 942.2 35.7L960 30L960 0L942.2 0C924.3 0 888.7 0 853.2 0C817.7 0 782.3 0 746.8 0C711.3 0 675.7 0 640 0C604.3 0 568.7 0 533.2 0C497.7 0 462.3 0 426.8 0C391.3 0 355.7 0 320 0C284.3 0 248.7 0 213.2 0C177.7 0 142.3 0 106.8 0C71.3 0 35.7 0 17.8 0L0 0Z" fill="#000000" stroke-linecap="round" stroke-linejoin="miter"></path></svg>