<svg id="visual" viewBox="0 0 900 600" width="900" height="600" xmlns="http://www.w3.org/2000/svg" xmlns:xlink="http://www.w3.org/1999/xlink" version="1.1"><rect x="0" y="0" width="900" height="600" fill="#0e1015"></rect><path d="M0 58L21.5 60C43 62 86 66 128.8 70.8C171.7 75.7 214.3 81.3 257.2 81.7C300 82 343 77 385.8 70.3C428.7 63.7 471.3 55.3 514.2 51.3C557 47.3 600 47.7 642.8 55.2C685.7 62.7 728.3 77.3 771.2 84.3C814 91.3 857 90.7 878.5 90.3L900 90L900 0L878.5 0C857 0 814 0 771.2 0C728.3 0 685.7 0 642.8 0C600 0 557 0 514.2 0C471.3 0 428.7 0 385.8 0C343 0 300 0 257.2 0C214.3 0 171.7 0 128.8 0C86 0 43 0 21.5 0L0 0Z" fill="#000000" stroke-linecap="round" stroke-linejoin="miter"></path></svg>